<?xml version="1.0" encoding="UTF-8"?>
<svg id="Layer_1" xmlns="http://www.w3.org/2000/svg" width="1080" height="197.838" version="1.1" viewBox="0 0 1080 197.838">
  <!-- Generator: Adobe Illustrator 30.0.0, SVG Export Plug-In . SVG Version: 2.1.1 Build 123)  -->
  <defs>
    <style>
      .st0 {
        fill: #8a827e;
      }

      .st1 {
        fill: #473d38;
      }
    </style>
  </defs>
  <g>
    <path class="st1" d="M161.334,150.912c-1.516,0-3.033.374-3.981.374-1.896,0-2.655-.562-3.224-1.877-.569-1.501-1.327-4.503-1.327-18.77v-29.28c0-22.713-8.91-35.289-28.246-35.289-9.479,0-15.925,3.002-22.939,11.074l.947-39.418c0-2.44-.378-4.317-3.222-4.317s-39.247,2.252-57.825,2.252c-18.768,0-32.418-2.252-35.641-2.252C1.896,33.409,0,35.849,0,40.917,0,44.858,1.138,51.803,1.138,59.499,1.138,67.945,0,73.578,0,77.895,0,84.464,2.086,88.219,6.824,88.219c4.55,0,6.635-3.379,6.635-10.7,0-6.007-.758-14.265-.758-20.271,0-7.696,2.655-9.948,11.754-9.948,8.72,0,10.047,3.565,10.047,22.711v50.681c0,23.088-.947,28.155-2.654,29.845-.569.562-1.706.939-3.033.939-2.086,0-4.171-.751-6.446-.751-3.222,0-6.445,2.628-6.445,6.381,0,4.317,3.601,7.696,7.583,7.696h36.209c3.981,0,7.393-3.379,7.393-7.696,0-3.753-2.844-6.381-6.446-6.381-2.274,0-4.36.751-6.445.751-4.361,0-5.688-1.127-5.688-30.783v-50.681c0-18.958,1.138-22.711,10.237-22.711,8.91,0,11.564,2.252,11.564,9.948,0,6.007-.758,14.079-.758,20.271,0,7.322,2.085,10.7,6.635,10.7,4.74,0,6.824-3.755,6.824-10.324,0-4.317-1.138-9.95-1.138-18.396,0-4.902.46-9.491.795-13.201.481-.067.936-.125,1.295-.125,2.085,0,3.033,1.501,3.602,3.19.569,1.877.947,10.136.947,24.965v53.309c0,23.462-1.138,23.65-4.549,23.65-.948,0-2.464-.374-3.982-.374-3.033,0-5.308,3.19-5.308,6.757,0,3.753,3.033,6.381,6.066,6.381h28.816c3.033,0,6.256-2.44,6.256-6.381,0-3.755-2.275-6.757-5.308-6.757-1.516,0-2.654.374-3.981.374-3.033,0-3.602-2.063-3.982-5.256-.378-3.567-.569-14.453-.569-35.101,0-19.709,6.635-31.722,20.664-31.722,11.564,0,16.683,8.635,16.683,24.591v23.838c0,23.462-1.138,23.65-4.55,23.65-.947,0-2.464-.374-3.791-.374-3.222,0-5.498,3.002-5.498,6.757,0,3.941,3.222,6.381,6.066,6.381h28.816c3.222,0,6.256-2.628,6.256-6.381,0-3.567-2.275-6.757-5.308-6.757Z"/>
    <path class="st1" d="M226.74,107.74c0,9.011-.569,10.7-4.93,10.7h-40.759c-5.498,0-6.445.562-6.445,5.256,0,17.455,7.772,29.092,19.905,29.092,8.152,0,15.356-6.381,17.252-17.267.947-5.444,3.602-8.26,7.583-8.26,4.361,0,6.257,3.379,6.257,7.133,0,12.013-10.428,31.534-31.47,31.534-21.423,0-33.934-19.709-33.934-49.177,0-31.348,15.546-50.681,35.45-50.681,18.39,0,31.091,18.02,31.091,41.67ZM180.293,105.676h28.057c2.464,0,3.982-1.315,3.982-3.381,0-13.514-6.824-23.088-17.441-23.088-12.891,0-19.337,14.267-19.337,23.088,0,3.193,2.464,3.381,4.74,3.381Z"/>
    <path class="st1" d="M409.305,127.26c-3.981,0-6.635,2.816-7.583,8.26-1.896,10.886-9.1,17.267-17.252,17.267-12.133,0-19.905-11.637-19.905-29.092,0-4.694.947-5.256,6.445-5.256h40.759c4.361,0,4.93-1.689,4.93-10.7,0-23.65-12.702-41.67-31.091-41.67-19.905,0-35.45,19.333-35.45,50.681,0,.46-4.173,34.724-10.618,34.724-6.635,0-8.531-6.007-8.531-24.589v-41.484c0-3.941.378-5.256,3.602-5.256,3.033,0,9.858,1.315,12.891,1.315,4.36,0,7.962-2.628,7.962-7.322,0-5.068-3.033-7.131-8.151-7.131-4.361,0-7.963.751-11.944.751-3.222,0-4.36-.939-4.36-3.193v-17.832c0-5.818-2.655-8.07-6.635-8.07-4.55,0-6.826,2.814-6.826,8.258v16.142c0,3.567-.758,4.679-2.274,4.694-2.493.024-2.087-6.576-2.087-9.761,0-5.818,1.138-12.387,1.138-17.643,0-4.317-2.654-7.322-6.824-7.322-3.033,0-5.498,1.315-5.498,7.133,0,.374,0,1.689.189,2.063h-.378c-6.635-7.508-13.461-10.324-22.75-10.324-19.715,0-33.744,17.269-33.744,36.792,0,18.958,12.133,29.657,30.521,33.974,10.427,2.44,18.768,4.317,24.644,8.823,4.361,3.379,7.015,8.635,7.015,16.33,0,13.514-9.479,24.212-23.886,24.212-16.304,0-25.972-13.138-25.972-25.716,0-3.753.758-6.193.758-9.948,0-5.256-2.085-8.258-6.256-8.258-4.55,0-7.015,3.19-7.015,7.882s1.138,9.573,1.138,15.58c0,6.945-1.138,18.208-1.138,25.527,0,6.757,3.033,8.635,6.066,8.635,4.36,0,6.257-3.002,6.257-8.446,0-1.313-.19-3.19-.38-4.505l.38-.374c6.824,9.009,15.545,13.514,26.73,13.514,13.774,0,27.748-7.649,33.738-23.079,1.502,15.396,7.801,22.517,20.861,22.517,9.575,0,15.979-4.821,19.444-14.41,5.813,9.47,14.59,14.972,25.866,14.972,21.042,0,31.47-19.521,31.47-31.534,0-3.755-1.896-7.133-6.257-7.133ZM384.85,79.208c10.617,0,17.441,9.573,17.441,23.088,0,2.066-1.517,3.381-3.982,3.381h-28.057c-2.275,0-4.74-.188-4.74-3.381,0-8.821,6.446-23.088,19.337-23.088ZM308.448,98.166c-3.982-2.814-11.565-5.63-22.181-8.446-20.284-5.444-26.73-9.385-26.73-21.586,0-12.576,8.342-22.337,20.664-22.337,11.944,0,21.422,8.446,21.422,22.902,0,2.814-1.509,12.019,5.56,13.601,2.118.474,7.24-1.402,8.092-1.402,2.274,0,2.274,2.442,2.274,3.755v24.023c-2.082-4.255-5.098-7.717-9.1-10.509Z"/>
    <path class="st1" d="M486.274,107.74c0,9.011-.569,10.7-4.93,10.7h-40.759c-5.498,0-6.445.562-6.445,5.256,0,17.455,7.772,29.092,19.905,29.092,8.152,0,15.356-6.381,17.252-17.267.947-5.444,3.602-8.26,7.583-8.26,4.361,0,6.257,3.379,6.257,7.133,0,12.013-10.428,31.534-31.47,31.534-21.423,0-33.934-19.709-33.934-49.177,0-31.348,15.546-50.681,35.45-50.681,18.39,0,31.091,18.02,31.091,41.67ZM439.827,105.676h28.057c2.464,0,3.982-1.315,3.982-3.381,0-13.514-6.824-23.088-17.441-23.088-12.891,0-19.337,14.267-19.337,23.088,0,3.193,2.464,3.381,4.74,3.381Z"/>
    <path class="st1" d="M557.413,114.308c0,33.037-14.788,51.619-33.745,51.619-7.962,0-13.839-3.379-17.82-8.635h-.38c0,17.457.569,20.836,1.138,22.899.569,2.066,1.516,2.442,3.413,2.442.947,0,2.464-.376,3.791-.376,3.222,0,5.498,3.004,5.498,6.757,0,3.943-3.222,6.383-6.066,6.383h-28.816c-3.033,0-6.256-2.628-6.256-6.383s2.275-6.757,5.308-6.757c1.516,0,2.654.376,3.981.376,2.464,0,3.033-.939,3.602-2.816.569-2.066.948-9.011.948-21.398v-50.492c0-14.829-.38-23.276-.948-25.153-.758-2.063-1.896-3.002-3.602-3.002-1.327,0-2.464.374-3.791.374-3.413,0-5.687-2.44-5.687-6.195,0-3.565,2.464-6.943,6.066-6.943,2.464,0,5.687,1.501,8.72,1.501,3.602,0,7.204-1.501,9.289-1.501,2.655,0,3.224,1.501,3.224,5.068,0,1.501-.19,3.19-.19,4.692h.38c5.877-7.131,12.702-10.698,20.853-10.698,18.768,0,31.091,18.582,31.091,48.239ZM523.857,152.602c10.428,0,19.526-11.639,19.526-36.79,0-23.464-6.824-36.039-18.767-36.039-11.754,0-19.148,12.199-19.148,36.79,0,23.462,7.393,36.039,18.389,36.039Z"/>
    <g>
      <path class="st1" d="M570.031,59.313c5.119,0,9.479-4.882,9.479-11.451s-4.171-11.639-9.479-11.639-9.667,5.07-9.667,11.639,4.549,11.451,9.667,11.451Z"/>
      <path class="st1" d="M722.263,77.144c4.739,0,8.151-3.379,8.151-10.324,0-9.197-7.016-17.832-17.062-17.832-9.289,0-14.977,5.818-16.683,17.643-2.085-.188-3.791-.562-5.498-.562-17.631,0-29.195,13.138-29.195,30.219,0,5.256.569,8.823,3.413,14.641-8.153,4.317-11.376,10.512-11.376,18.582,0,8.823,3.791,14.641,11.376,18.022-2.068,1.003-8.344,3.753-9.672,3.753-2.465,0-3.601-1.127-3.982-5.256-.378-4.129-.569-10.136-.569-42.046,0-27.779-7.961-37.915-28.246-37.915-9.289,0-16.683,2.628-22.559,9.948l-.38-.374v-2.442c0-5.818-8.531-4.692-12.322-4.692h-21.041c-3.033,0-14.788-.755-14.788,5.442,0,3.755,2.086,6.195,5.688,6.195,1.327,0,2.654-.374,3.981-.374,2.086,0,3.413,1.877,3.792,5.818.378,3.941.569,15.954.569,42.046,0,23.65-1.138,23.65-4.55,23.65-1.327,0-2.464-.374-3.791-.374-3.222,0-5.498,3.19-5.498,6.757,0,3.753,3.033,6.381,6.256,6.381h49.667c3.224,0,6.257-2.628,6.257-6.381,0-3.567-2.275-6.757-5.499-6.757-1.327,0-2.464.374-3.791.374-2.843,0-4.549,0-4.549-17.457v-25.339c0-18.208,7.204-30.407,20.095-30.407,14.03,0,17.252,11.449,17.252,26.654v22.711c0,21.961-.569,23.838-4.55,23.838-1.328,0-2.465-.374-3.791-.374-3.224,0-5.498,3.19-5.498,6.757,0,3.753,3.032,6.381,6.255,6.381h21.981c-.335,1.77-.555,3.62-.555,5.632,0,18.02,15.924,28.155,36.967,28.155,23.507,0,37.346-12.952,37.346-30.972,0-15.768-9.479-21.775-17.631-25.153-7.204-3.002-24.075-3.753-27.3-3.753-12.511-.188-13.649-3.943-13.649-8.449,0-3.753,1.706-6.755,3.982-6.755.19,0,2.275.939,6.635,2.814,4.36,1.877,8.72,2.816,12.892,2.816,16.303,0,27.488-14.079,27.488-31.91,0-10.512-3.791-19.144-10.427-24.777-.19-.939-.19-1.877-.19-2.816,0-3.941,3.032-8.258,6.257-8.258,2.085,0,3.601,2.628,3.601,2.816-1.326,2.063-2.463,3.379-2.463,6.381,0,3.943,3.222,7.322,7.204,7.322ZM583.247,151.256c-1.616-.145-2.28-.882-2.788-2.221-.569-1.689-1.138-7.322-1.138-18.77v-30.221c0-3.531.297-12.557.462-19.985.919-.11,1.839-.286,2.759-.286,2.086,0,3.413,1.877,3.792,5.818.378,3.941.569,14.265.569,42.046,0,20.968-.638,23.364-3.656,23.62ZM689.087,151.287c14.596,0,23.507,6.383,23.507,16.707s-8.72,16.705-23.887,16.705c-13.649,0-23.128-6.569-23.128-16.519,0-11.26,9.67-16.893,23.509-16.893ZM690.225,114.873c-8.91,0-15.167-6.571-15.167-18.584,0-10.324,5.876-17.455,14.408-17.455,9.289,0,15.734,7.131,15.734,18.208,0,10.698-5.686,17.832-14.975,17.832Z"/>
    </g>
    <path class="st1" d="M923.222,66.07c-14.637,0-26.009,9.266-31.415,25.856-5.438-16.404-16.772-25.856-31.336-25.856-20.665,0-34.883,18.394-34.883,49.928,0,14.607,7.258,30.793,6.443,34.727-.308,1.485-3.603.751-5.876.751-2.844,0-3.603-.751-4.362-2.44-.569-1.689-1.138-7.133-1.706-16.707l-.567-11.26c-.19-4.694-.381-11.263-3.225-15.768-1.895-3.19-5.876-5.068-10.995-7.133v-.374c13.082-3.567,20.286-13.14,20.286-29.847,0-21.584-10.429-33.597-31.282-33.597-7.392,0-26.541,1.313-30.332,1.313-5.498,0-14.027-2.252-19.147-2.252-4.55,0-7.773,3.379-7.773,7.696,0,3.753,3.034,6.381,6.445,6.381,1.706,0,4.172-.751,6.447-.751,3.791,0,5.686,1.501,5.686,25.716v48.241c0,22.899-1.138,27.967-2.463,29.657-.759.939-1.897,1.127-3.222,1.127-2.087,0-4.172-.751-6.257-.751-3.791,0-6.635,2.628-6.635,6.381,0,4.317,3.413,7.696,7.394,7.696h36.208c4.17,0,7.583-3.379,7.583-7.696,0-3.753-3.222-6.381-6.445-6.381-2.275,0-4.36.751-6.445.751-5.309,0-5.688-3.755-5.688-38.856,0-6.007,1.516-7.508,6.826-7.696,8.339-.186,9.289-.186,10.236-.186,11.754,0,14.787,2.063,16.871,7.882,1.138,3.004,1.897,10.138,2.275,21.586.569,19.333,1.897,25.153,8.153,28.344,2.842,1.501,8.151,2.252,15.734,2.252,5.498,0,22.03,1.127,30.903,1.127,14.785,0,25.894-9.481,31.209-25.779,5.383,16.298,16.625,25.779,31.542,25.779,21.043,0,34.692-19.147,34.692-49.93,0-30.969-14.218-49.928-34.88-49.928ZM798.095,90.096c-3.601,1.125-10.046,1.689-19.147,1.689-8.151,0-9.289-.565-9.289-4.317v-31.536c0-7.32,6.635-9.385,18.199-9.385,15.734,0,23.128,7.133,23.128,21.398,0,13.705-5.498,19.897-12.892,22.151ZM860.849,152.976c-12.702,0-21.422-14.453-21.422-36.978,0-23.274,8.53-36.976,21.232-36.976,12.514,0,20.855,13.702,20.855,36.79,0,22.335-7.773,37.164-20.665,37.164ZM923.6,152.976c-12.702,0-21.422-14.453-21.422-36.978,0-23.274,8.53-36.976,21.232-36.976,12.514,0,20.855,13.702,20.855,36.79,0,22.335-7.773,37.164-20.665,37.164Z"/>
    <path class="st1" d="M1015.923,78.269c4.929-8.821,13.27-12.199,23.319-12.199,18.388,0,26.919,8.446,26.919,36.602,0,25.153,0,38.479.569,42.797.759,5.63,6.445,5.444,7.773,5.444,3.222,0,5.498,3.19,5.498,6.757,0,3.753-3.034,6.381-6.066,6.381h-27.11c-2.844,0-6.066-2.252-6.066-6.381,0-3.755,2.275-6.757,5.307-6.757.949,0,4.741.186,5.119-.188,1.138-1.315,1.516-5.444,1.516-23.088v-20.648c0-21.024-3.979-28.155-15.165-28.155-11.943,0-16.305,7.696-16.305,27.405v14.453c0,19.521.381,24.777.759,27.029.569,3.193,5.498,3.193,6.257,3.193,3.032,0,5.307,3.19,5.307,6.757,0,3.941-3.032,6.381-6.066,6.381h-26.16c-3.034,0-6.257-2.44-6.257-6.381,0-3.755,2.275-6.757,5.307-6.757.759,0,5.688.186,6.257-1.689.378-1.503,1.138-3.943,1.138-21.586v-20.648c0-19.333-2.844-28.155-14.408-28.155-11.186,0-17.062,11.263-17.062,28.344,0,26.278.19,35.475.378,38.665.381,5.07,1.328,5.444,2.654,5.444,1.518,0,2.465-.374,3.413-.374,3.603,0,5.309,2.814,5.309,6.757s-3.034,6.381-6.257,6.381h-26.351c-3.603,0-6.447-2.44-6.447-6.381s1.706-6.757,5.309-6.757c1.326,0,7.014-.188,7.583-2.442.378-1.689.947-6.381.947-21.022,0-24.965-.188-37.917-.569-41.858-.378-3.941-6.445-5.444-7.773-5.444-3.411,0-5.686-2.44-5.686-6.195,0-3.379,2.463-6.943,6.066-6.943h17.819c2.656,0,3.603,1.875,3.603,5.254,0,1.689-.19,2.628-.19,3.943,6.257-7.322,12.514-10.136,19.715-10.136,7.394,0,14.03,2.252,20.096,12.199Z"/>
  </g>
  <path class="st0" d="M392.793,59.278c2.155.279,3.92-1.125,3.606-3.426-.073-.511-.459-1.228-1.159-2.147-1.975-2.584-2.786-5.722-1.936-8.856,1.052-3.868,3.19-6.053,6.178-9.466,3.069-3.507,4.327-7.663,3.769-12.462-.507-4.319-2.979-7.929-6.311-10.634-1.095-.893-1.915-1.404-2.46-1.528-1.854-.434-3.181.223-3.984,1.975-.399.871.021,2.37.605,3.005,1.649,1.786,2.821,2.872,3.683,4.319,3.563,5.959-.189,10.681-4.164,15.219-1.928,2.202-3.739,4.516-4.216,6.774-.695,3.28-.605,6.628.271,10.046.665,2.589,3.095,6.796,6.117,7.182Z"/>
  <path class="st0" d="M442.935,59.278c2.155.279,3.92-1.125,3.606-3.426-.073-.511-.459-1.228-1.159-2.147-1.975-2.584-2.786-5.722-1.936-8.856,1.052-3.868,3.19-6.053,6.178-9.466,3.069-3.507,4.327-7.663,3.769-12.462-.507-4.319-2.979-7.929-6.311-10.634-1.095-.893-1.915-1.404-2.46-1.528-1.854-.434-3.181.223-3.984,1.975-.399.871.021,2.37.605,3.005,1.649,1.786,2.821,2.872,3.683,4.319,3.563,5.959-.189,10.681-4.164,15.219-1.928,2.202-3.739,4.516-4.216,6.774-.695,3.28-.605,6.628.271,10.046.665,2.589,3.095,6.796,6.117,7.182Z"/>
  <path class="st0" d="M418.107,59.196c2.858-.226,4.364-3.383,2.628-5.691-4.626-6.157-4.306-12.351.813-18.079,4.049-4.531,7.484-7.831,8.68-13.332.383-1.767.488-3.997.304-6.682-.409-6.032-4.794-11.822-9.692-14.785-3.079-1.857-7.065.65-5.769,4.332.451,1.29,1.631,2.276,2.911,3.671,8.067,8.796,2.507,16.002-4.175,22.736-4.831,4.867-5.539,10.495-4.61,17.04.572,4.044,3.902,11.177,8.911,10.789Z"/>
</svg>